<mxfile host="app.diagrams.net" agent="Mozilla/5.0 (Windows NT 10.0; Win64; x64) AppleWebKit/537.36 (KHTML, like Gecko) Chrome/133.0.0.0 Safari/537.36" version="26.0.16">
  <diagram name="Page-1" id="3YdIM2ebGIVdK3NNQPUU">
    <mxGraphModel dx="1059" dy="605" grid="1" gridSize="10" guides="1" tooltips="1" connect="1" arrows="1" fold="1" page="1" pageScale="1" pageWidth="827" pageHeight="1169" math="0" shadow="0">
      <root>
        <mxCell id="0" />
        <mxCell id="1" parent="0" />
        <mxCell id="_Ihk1jzI4s_IJhZZ3BQH-10" style="edgeStyle=orthogonalEdgeStyle;rounded=0;orthogonalLoop=1;jettySize=auto;html=1;" edge="1" parent="1" source="_Ihk1jzI4s_IJhZZ3BQH-1" target="_Ihk1jzI4s_IJhZZ3BQH-2">
          <mxGeometry relative="1" as="geometry">
            <Array as="points">
              <mxPoint x="320" y="40" />
            </Array>
          </mxGeometry>
        </mxCell>
        <mxCell id="_Ihk1jzI4s_IJhZZ3BQH-1" value="START" style="ellipse;whiteSpace=wrap;html=1;fillColor=#f8cecc;strokeColor=#b85450;" vertex="1" parent="1">
          <mxGeometry x="354" width="120" height="80" as="geometry" />
        </mxCell>
        <mxCell id="_Ihk1jzI4s_IJhZZ3BQH-11" style="edgeStyle=orthogonalEdgeStyle;rounded=0;orthogonalLoop=1;jettySize=auto;html=1;exitX=1;exitY=0.5;exitDx=0;exitDy=0;entryX=0.5;entryY=0;entryDx=0;entryDy=0;" edge="1" parent="1" source="_Ihk1jzI4s_IJhZZ3BQH-2" target="_Ihk1jzI4s_IJhZZ3BQH-3">
          <mxGeometry relative="1" as="geometry" />
        </mxCell>
        <mxCell id="_Ihk1jzI4s_IJhZZ3BQH-2" value="Insert Cover Page" style="rounded=1;whiteSpace=wrap;html=1;fillColor=#fff2cc;strokeColor=#d6b656;" vertex="1" parent="1">
          <mxGeometry x="260" y="100" width="120" height="60" as="geometry" />
        </mxCell>
        <mxCell id="_Ihk1jzI4s_IJhZZ3BQH-24" style="edgeStyle=orthogonalEdgeStyle;rounded=0;orthogonalLoop=1;jettySize=auto;html=1;exitX=0;exitY=0.5;exitDx=0;exitDy=0;entryX=0.5;entryY=0;entryDx=0;entryDy=0;" edge="1" parent="1" source="_Ihk1jzI4s_IJhZZ3BQH-3" target="_Ihk1jzI4s_IJhZZ3BQH-5">
          <mxGeometry relative="1" as="geometry" />
        </mxCell>
        <mxCell id="_Ihk1jzI4s_IJhZZ3BQH-3" value="Insert &quot;Section Break&quot; after page 1 (page after cover page)" style="rounded=1;whiteSpace=wrap;html=1;fillColor=#fff2cc;strokeColor=#d6b656;" vertex="1" parent="1">
          <mxGeometry x="450" y="150" width="120" height="60" as="geometry" />
        </mxCell>
        <mxCell id="_Ihk1jzI4s_IJhZZ3BQH-21" style="edgeStyle=orthogonalEdgeStyle;rounded=0;orthogonalLoop=1;jettySize=auto;html=1;exitX=1;exitY=0.5;exitDx=0;exitDy=0;entryX=0.5;entryY=0;entryDx=0;entryDy=0;" edge="1" parent="1" source="_Ihk1jzI4s_IJhZZ3BQH-5" target="_Ihk1jzI4s_IJhZZ3BQH-6">
          <mxGeometry relative="1" as="geometry" />
        </mxCell>
        <mxCell id="_Ihk1jzI4s_IJhZZ3BQH-5" value="Open Header/Footer on page 3" style="rounded=1;whiteSpace=wrap;html=1;fillColor=#fff2cc;strokeColor=#d6b656;" vertex="1" parent="1">
          <mxGeometry x="260" y="210" width="120" height="60" as="geometry" />
        </mxCell>
        <mxCell id="_Ihk1jzI4s_IJhZZ3BQH-22" style="edgeStyle=orthogonalEdgeStyle;rounded=0;orthogonalLoop=1;jettySize=auto;html=1;exitX=0;exitY=0.5;exitDx=0;exitDy=0;entryX=0.5;entryY=0;entryDx=0;entryDy=0;" edge="1" parent="1" source="_Ihk1jzI4s_IJhZZ3BQH-6" target="_Ihk1jzI4s_IJhZZ3BQH-9">
          <mxGeometry relative="1" as="geometry" />
        </mxCell>
        <mxCell id="_Ihk1jzI4s_IJhZZ3BQH-6" value="Turn off &quot;Link to Previous&quot;" style="rounded=1;whiteSpace=wrap;html=1;fillColor=#fff2cc;strokeColor=#d6b656;" vertex="1" parent="1">
          <mxGeometry x="450" y="260" width="120" height="60" as="geometry" />
        </mxCell>
        <mxCell id="_Ihk1jzI4s_IJhZZ3BQH-19" style="edgeStyle=orthogonalEdgeStyle;rounded=0;orthogonalLoop=1;jettySize=auto;html=1;entryX=0.5;entryY=0;entryDx=0;entryDy=0;" edge="1" parent="1" source="_Ihk1jzI4s_IJhZZ3BQH-9" target="_Ihk1jzI4s_IJhZZ3BQH-17">
          <mxGeometry relative="1" as="geometry" />
        </mxCell>
        <mxCell id="_Ihk1jzI4s_IJhZZ3BQH-9" value="Change page start number from 0 -1" style="rounded=1;whiteSpace=wrap;html=1;fillColor=#fff2cc;strokeColor=#d6b656;" vertex="1" parent="1">
          <mxGeometry x="260" y="320" width="120" height="60" as="geometry" />
        </mxCell>
        <mxCell id="_Ihk1jzI4s_IJhZZ3BQH-23" style="edgeStyle=orthogonalEdgeStyle;rounded=0;orthogonalLoop=1;jettySize=auto;html=1;exitX=0.5;exitY=1;exitDx=0;exitDy=0;" edge="1" parent="1" source="_Ihk1jzI4s_IJhZZ3BQH-17" target="_Ihk1jzI4s_IJhZZ3BQH-18">
          <mxGeometry relative="1" as="geometry" />
        </mxCell>
        <mxCell id="_Ihk1jzI4s_IJhZZ3BQH-17" value="Insert your page number" style="rounded=1;whiteSpace=wrap;html=1;fillColor=#fff2cc;strokeColor=#d6b656;" vertex="1" parent="1">
          <mxGeometry x="450" y="370" width="120" height="60" as="geometry" />
        </mxCell>
        <mxCell id="_Ihk1jzI4s_IJhZZ3BQH-18" value="Finish" style="ellipse;whiteSpace=wrap;html=1;fillColor=#f8cecc;strokeColor=#b85450;" vertex="1" parent="1">
          <mxGeometry x="354" y="460" width="120" height="80" as="geometry" />
        </mxCell>
      </root>
    </mxGraphModel>
  </diagram>
</mxfile>
